<?xml version="1.0" standalone="no"?>
<!DOCTYPE svg PUBLIC "-//W3C//DTD SVG 20010904//EN"
 "http://www.w3.org/TR/2001/REC-SVG-20010904/DTD/svg10.dtd">
<svg version="1.0" xmlns="http://www.w3.org/2000/svg"
 width="260.000000pt" height="260.000000pt" viewBox="0 0 260.000000 260.000000"
 preserveAspectRatio="xMidYMid meet">
<metadata>
Created by potrace 1.11, written by Peter Selinger 2001-2013
</metadata>
<g transform="translate(0.000000,260.000000) scale(0.100000,-0.100000)"
fill="#000000" stroke="none">
<path d="M1482 2333 c-33 -38 -69 -78 -79 -89 -10 -12 -56 -64 -103 -115 -160
-176 -195 -215 -275 -304 -44 -49 -103 -114 -131 -144 -28 -31 -99 -109 -157
-174 l-107 -119 0 -394 c0 -217 3 -394 6 -394 4 0 21 14 38 32 l30 32 1 293
c0 247 2 295 15 310 9 10 99 110 200 223 102 113 200 223 220 244 19 22 46 51
60 66 114 121 164 185 162 206 -4 27 33 64 64 64 27 0 64 -36 64 -61 0 -28
-40 -71 -61 -66 -15 4 -69 -51 -236 -236 -120 -133 -222 -247 -228 -253 -54
-59 -170 -188 -186 -208 -17 -22 -19 -38 -17 -116 l3 -91 145 162 c80 89 152
170 160 178 9 9 52 56 95 105 87 98 88 99 157 173 26 28 44 53 41 56 -13 13 9
58 35 71 57 29 113 -35 78 -89 -9 -14 -22 -25 -29 -26 -41 -2 -51 -10 -137
-109 -37 -42 -238 -265 -306 -340 -18 -19 -41 -44 -51 -56 -10 -12 -52 -58
-93 -104 -107 -118 -101 -105 -98 -222 3 -90 5 -100 18 -86 8 8 47 50 85 93
39 43 79 88 90 100 11 11 56 61 100 110 44 49 87 97 95 105 8 9 33 36 54 61
22 24 62 69 90 99 28 31 89 98 136 150 47 51 95 105 108 118 12 14 22 37 23
51 1 14 2 191 3 393 1 262 -2 368 -10 368 -6 0 -38 -30 -72 -67z"/>
<path d="M1411 2027 c-22 -22 -2 -61 25 -50 8 3 14 15 14 28 0 26 -22 39 -39
22z"/>
<path d="M1411 1750 c-19 -11 -9 -45 14 -45 13 0 21 8 23 21 3 23 -17 37 -37
24z"/>
<path d="M1923 1625 l-28 -35 0 -294 0 -294 -125 -139 c-68 -76 -146 -160
-172 -188 -33 -35 -48 -58 -48 -77 0 -53 -61 -86 -101 -55 -45 34 -26 99 32
112 17 4 44 21 59 39 15 17 40 45 55 61 65 71 104 115 170 189 l70 79 1 88 c1
49 -2 89 -6 89 -5 0 -20 -15 -35 -32 -15 -18 -63 -71 -106 -118 -130 -142
-139 -154 -139 -181 0 -73 -108 -80 -125 -8 -8 33 21 69 57 72 14 1 37 14 50
28 111 122 195 215 246 273 l60 68 -3 107 c-1 58 -3 108 -4 110 0 2 -18 -16
-38 -39 -21 -24 -45 -51 -53 -60 -8 -9 -46 -51 -83 -92 -37 -42 -76 -85 -85
-96 -31 -35 -146 -163 -184 -206 -34 -37 -38 -47 -39 -96 -3 -259 0 -723 6
-728 3 -4 25 13 47 38 22 25 61 68 87 96 25 27 73 81 106 119 33 37 69 78 80
89 11 12 74 82 140 156 66 74 125 141 132 148 7 7 14 16 15 20 6 26 3 784 -3
788 -4 2 -20 -11 -36 -31z"/>
<path d="M1467 893 c-13 -12 -7 -41 10 -47 23 -9 47 22 32 41 -12 14 -32 17
-42 6z"/>
<path d="M1467 613 c-4 -3 -7 -15 -7 -25 0 -13 7 -18 25 -18 20 0 25 5 25 25
0 18 -5 25 -18 25 -10 0 -22 -3 -25 -7z"/>
</g>
</svg>
